<?xml version="1.0" standalone="no"?>
<!DOCTYPE svg PUBLIC "-//W3C//DTD SVG 20010904//EN"
 "http://www.w3.org/TR/2001/REC-SVG-20010904/DTD/svg10.dtd">
<svg version="1.0" xmlns="http://www.w3.org/2000/svg"
 width="612.000000pt" height="612.000000pt" viewBox="0 0 612.000000 612.000000"
 preserveAspectRatio="xMidYMid meet">

<g transform="translate(0.000000,612.000000) scale(0.100000,-0.100000)"
fill="#000000" stroke="none">
<path d="M2900 4635 c-183 -41 -337 -145 -441 -297 -111 -161 -149 -379 -99
-572 87 -340 425 -572 768 -526 352 47 603 317 619 665 6 142 -12 230 -73 355
-39 79 -62 109 -133 180 -94 93 -173 142 -296 180 -91 29 -254 36 -345 15z"/>
<path d="M2698 3125 c-474 -82 -842 -480 -887 -958 -11 -113 -4 -142 39 -164
20 -10 266 -12 1206 -10 1373 2 1224 -12 1224 121 0 105 -37 265 -87 381 -129
298 -396 525 -720 612 -94 25 -110 27 -398 29 -216 2 -321 -1 -377 -11z"/>
</g>
</svg>
